<?xml version="1.0" encoding="utf-8" ?>
<svg baseProfile="full" height="600px" version="1.1" width="400px"
    xmlns="http://www.w3.org/2000/svg"
    xmlns:ev="http://www.w3.org/2001/xml-events"
    xmlns:xlink="http://www.w3.org/1999/xlink">
    <defs />
    <rect fill="#f9f9f9" height="100%" width="100%" x="0" y="0" />
    <rect fill="#d1e7ff" height="30" rx="10" ry="10" width="350" x="40" y="20" />
    <text fill="#000" font-family="Arial" font-size="14px" x="50" y="40">Find and refactor all data clumps in the given file</text>
    <rect fill="#d1e7ff" height="170" rx="10" ry="10" width="350" x="40" y="60" />
    <text fill="#000" font-family="Arial" font-size="14px" x="50" y="80" />
    <text fill="#000" font-family="Arial" font-size="14px" x="50" y="100">    // MathStuff.java</text>
    <text fill="#000" font-family="Arial" font-size="14px" x="50" y="120">    public void printLength(int x, int y, int z) {</text>
    <text fill="#000" font-family="Arial" font-size="14px" x="50" y="140">    }</text>
    <text fill="#000" font-family="Arial" font-size="14px" x="50" y="160" />
    <text fill="#000" font-family="Arial" font-size="14px" x="50" y="180">    public void printSum(int x, int y, int z) {</text>
    <text fill="#000" font-family="Arial" font-size="14px" x="50" y="200">    }</text>
    <text fill="#000" font-family="Arial" font-size="14px" x="50" y="220" />
    <rect fill="#d1e7ff" height="150" rx="10" ry="10" width="255.20000000000002" x="134.79999999999998" y="240" />
    <text fill="#000" font-family="Arial" font-size="14px" x="144.79999999999998" y="260">"</text>
    <text fill="#000" font-family="Arial" font-size="14px" x="144.79999999999998" y="280">     // Library.java</text>
    <text fill="#000" font-family="Arial" font-size="14px" x="144.79999999999998" y="300">    private boolean sign;</text>
    <text fill="#000" font-family="Arial" font-size="14px" x="144.79999999999998" y="320">    private double mantissa;</text>
    <text fill="#000" font-family="Arial" font-size="14px" x="144.79999999999998" y="340">    private int exponent;</text>
    <text fill="#000" font-family="Arial" font-size="14px" x="144.79999999999998" y="360" />
    <text fill="#000" font-family="Arial" font-size="14px" x="144.79999999999998" y="380"></text>
    <rect fill="#d1e7ff" height="130" rx="10" ry="10" width="255.20000000000002" x="134.79999999999998" y="400" />
    <text fill="#000" font-family="Arial" font-size="14px" x="144.79999999999998" y="420" />
    <text fill="#000" font-family="Arial" font-size="14px" x="144.79999999999998" y="440">    // MathUser.java</text>
    <text fill="#000" font-family="Arial" font-size="14px" x="144.79999999999998" y="460">    private boolean sign;</text>
    <text fill="#000" font-family="Arial" font-size="14px" x="144.79999999999998" y="480">    private double mantissa;</text>
    <text fill="#000" font-family="Arial" font-size="14px" x="144.79999999999998" y="500">    private int exponent;</text>
    <text fill="#000" font-family="Arial" font-size="14px" x="144.79999999999998" y="520"></text>
    <rect fill="#e0e0e0" height="50" rx="10" ry="10" width="350" x="10" y="540" />
    <text fill="#000" font-family="Arial" font-size="14px" x="20" y="560">The source code contains </text>
    <text fill="#000" font-family="Arial" font-size="14px" x="20" y="580">methods and field for mathematical operations</text>
    <rect fill="black" style="opacity:0.1" height="380" rx="10" ry="10" width="400" x="0" y="150" />
</svg>